<?xml version="1.0" encoding="utf-8"?>
<!-- Generator: Adobe Illustrator 22.1.0, SVG Export Plug-In . SVG Version: 6.00 Build 0)  -->
<svg version="1.1" id="Layer_1" xmlns="http://www.w3.org/2000/svg" xmlns:xlink="http://www.w3.org/1999/xlink" x="0px" y="0px"
	 viewBox="0 0 603.4 340.4" style="enable-background:new 0 0 603.4 340.4;" xml:space="preserve">
<style type="text/css">
	.st0{fill:#FFFFFF;}
</style>
<g id="outline-logo">
	<g id="letters">
		<path id="letterY" class="st0" d="M556.3,77.2c-8.1,0-11.7,4-13.1,6.5c-4.5,7.6-36,61.9-51.4,88.4c-2.3-8.2-5.3-18.6-8.7-29.3
			c-13.6-43-20.7-52.5-25.4-55.9c-9.2-6.7-23.9-7.7-31.8-7.7c-5.7,0-24.8,0.6-30.6,8.7c-2.6,3.6-2.9,7.7,5.1,32.6
			c4.1,12.9,10.2,30.4,18.1,51.9c11.7,32.1,24.1,63.9,27,71.5c-0.7,4.8-1.6,10.4-2.6,16.2c-6.2,37.9-8.5,56.5-1.7,63.8
			c4.3,4.7,14.7,8.7,22.6,11.3s18.5,5.1,25.3,5.1c1.7,0,6.8,0,9.5-3.9c2-2.7,2.8-7.2,5.8-25c2.6-16,6.2-37.8,10.4-46.6
			c2.2-4.5,11.9-18.8,23.2-35.4c46-67.8,67.5-102.5,65.4-116.4c-1.9-12.2-12.8-21.3-19.1-25.6C574.9,81.1,564.2,77.1,556.3,77.2
			L556.3,77.2z"/>
		<g id="letterAuml">
			<path class="st0" d="M388,104.7c-0.3-5.5-4.5-12.1-33-19.6c-17.3-4.6-36.7-7.4-50.5-7.4l0,0c-5-0.1-10.1,0.4-15,1.6
				c-5.3,1.4-13.1,7-30.1,37.7c-10,18.1-22.1,42.8-34.9,71.6c-21,47.2-44.1,105.6-44.8,117.2c-0.3,6.5,2.1,12.8,6.6,17.4
				c9.8,10.5,28.3,14.8,36,14.8c1.5,0,3-0.2,4.4-0.7c3.5-1.2,7.1-4.1,16.9-26.3c3.1-7.1,5.9-14,7.5-17.9
				c14.4-3.2,36.8-6.8,66.6-10.6c0,3.6,0,8.2,0.2,13c0.9,21.5,4.3,28.4,6.8,31.7c6.6,8.8,25,11.1,34.8,11.1c10,0,17-1.9,20.7-5.7
				c2-2,3.1-4.6,3.2-7.5c0-2.2,0.6-25.3,1.3-54.5C386.6,186.7,388.4,111,388,104.7z M270.9,235.5L270.9,235.5l47.9-93.3l2.4,88.5
				C304.3,230.7,287.5,232.3,270.9,235.5z"/>
			<path class="st0" d="M287.1,0c-9.3-0.2-18.1,3.8-24.2,10.8c-5.6,6.8-8.6,15.3-8.5,24.1c0,18.7,15.2,33.9,33.9,33.9
				c18.7,0,33.9-15.2,33.9-33.9c0-10.9-3.5-20-10.3-26.2C305.8,3,297.2,0,287.1,0L287.1,0z"/>
			<path class="st0" d="M373.8,0.3c-9.4,0-18.4,3.9-24.9,10.7c-6.1,6.3-9.4,14.8-9,23.6c1,21.9,16.9,33.8,31.4,33.8
				c1.1,0,2.3-0.1,3.4-0.2c7.9-0.9,15.3-4.1,21.5-9c7.5-6.1,11.7-15.3,11.5-24.9c0-10.4-3.5-19.1-10.1-25.2
				C391.5,3.4,383.1,0.3,373.8,0.3L373.8,0.3z"/>
		</g>
		<path id="letterK" class="st0" d="M186.4,78c-3.9,0-7.6,1.6-10.3,4.4c-7.3,7.7-52.1,56.9-78.6,86.1c0.9-3.6,1.9-7.4,2.8-11.2
			c2.9-11.8,5-21.5,6.3-28.9c2.3-13.7,1.7-18.1-0.3-21.1c-4.4-6.7-20.9-15.3-25.9-17.8c-8.3-4.1-23.9-11-35.3-11
			c-2,0-3.9,0.2-5.8,0.7c-6,1.7-10.2,8.3-16.5,40.2C19,138,15,163.7,11,193.7C4.6,242.6-1.4,303.3,0.3,312.5s11.1,15.2,18.8,18.8
			c8.9,4.2,19.1,6.7,27.2,6.7c13.2,0,17-6.5,18.1-10.4c2-7.1,4.7-23.3,6.6-36.2c0.6-4,1.1-7.4,1.5-10.4c4.3,5.2,9.5,11.5,14.8,17.7
			c26.6,31.3,31.7,33.4,34.2,34.5c3.3,1.2,6.8,1.8,10.2,1.6c8.8-0.2,17.5-1.8,25.8-4.6c12.1-4.1,18-9.3,18-15.9
			c0-5.7-5.5-14-31.2-46.8c-6.3-8.1-14.5-18.5-18.3-24c8-7.5,26.9-25.6,45.7-45.1c45.4-47.4,51-62.4,50.8-70.2
			c-0.3-10-4.6-22.2-11.6-32.5C207.2,90.4,197.6,78,186.4,78L186.4,78z"/>
	</g>
</g>
</svg>
